<svg width="600" height="600" viewBox="0 0 600 600" fill="none" xmlns="http://www.w3.org/2000/svg">
<rect width="600" height="600" rx="12" fill="#D4CC24"/>
<rect x="100" y="388" width="149" height="9" fill="black"/>
<rect x="351" y="388" width="149" height="9" fill="black"/>
<rect x="130" y="327" width="90" height="10" fill="black"/>
<rect x="377" y="327" width="91" height="10" fill="black"/>
<rect x="129" y="153" width="91" height="9" fill="black"/>
<rect x="379" y="157" width="90" height="9" fill="black"/>
<rect width="157.637" height="8.68141" transform="matrix(-0.472562 -0.881297 0.849277 -0.527948 93.1958 392.008)" fill="black"/>
<rect width="157.637" height="8.68141" transform="matrix(-0.472562 0.881297 -0.849277 -0.527948 100.569 109.167)" fill="black"/>
<rect width="92.5294" height="8.68141" transform="matrix(-0.472562 0.881297 -0.849277 -0.527948 131.099 165.629)" fill="black"/>
<rect width="255.551" height="8.68141" transform="matrix(-0.472562 0.881297 -0.849277 -0.527948 345.48 106.327)" fill="black"/>
<rect width="256.469" height="8.68141" transform="matrix(-0.472562 0.881297 -0.849277 -0.527948 378.84 166)" fill="black"/>
<rect width="160.868" height="8.68141" transform="matrix(-0.472562 0.881297 -0.849277 -0.527948 583.109 250.252)" fill="black"/>
<rect width="95.9737" height="8.68141" transform="matrix(-0.472562 0.881297 -0.849277 -0.527948 520.932 249.997)" fill="black"/>
<rect x="100" y="100" width="149" height="9" fill="black"/>
<rect x="346" y="100" width="154" height="9" fill="black"/>
<rect width="89.8073" height="8.68141" transform="matrix(-0.472562 -0.881297 0.849277 -0.527948 291.858 188.314)" fill="black"/>
<rect width="158.444" height="8.68141" transform="matrix(-0.472562 -0.881297 0.849277 -0.527948 575.607 245.935)" fill="black"/>
<rect width="89.8073" height="8.68141" transform="matrix(-0.472562 -0.881297 0.849277 -0.527948 262.913 241.48)" fill="black"/>
<rect width="92.8246" height="8.68141" transform="matrix(-0.472562 -0.881297 0.849277 -0.527948 511.23 247.806)" fill="black"/>
<rect width="89.8073" height="8.68141" transform="matrix(-0.472562 -0.881297 0.849277 -0.527948 122.439 332.23)" fill="black"/>
<rect width="89.8073" height="8.68141" transform="matrix(-0.472562 -0.881297 0.849277 -0.527948 342.939 392.73)" fill="black"/>
<rect width="89.8073" height="8.68141" transform="matrix(-0.472562 -0.881297 0.849277 -0.527948 371.034 333.147)" fill="black"/>
<ellipse cx="22" cy="247.5" rx="5" ry="5.5" fill="black"/>
<circle cx="83.5" cy="247.5" r="5.5" fill="black"/>
<ellipse cx="129" cy="160.5" rx="5" ry="5.5" fill="black"/>
<ellipse cx="221" cy="158.5" rx="5" ry="5.5" fill="black"/>
<ellipse cx="220" cy="330.5" rx="5" ry="5.5" fill="black"/>
<ellipse cx="252" cy="390.5" rx="5" ry="5.5" fill="black"/>
<ellipse cx="302" cy="308.5" rx="5" ry="5.5" fill="black"/>
<ellipse cx="99" cy="390.5" rx="5" ry="5.5" fill="black"/>
<circle cx="128.5" cy="330.5" r="5.5" fill="black"/>
<ellipse cx="251" cy="105.5" rx="5" ry="5.5" fill="black"/>
<ellipse cx="343" cy="105.5" rx="5" ry="5.5" fill="black"/>
<ellipse cx="502" cy="105.5" rx="5" ry="5.5" fill="black"/>
<ellipse cx="579" cy="245.5" rx="5" ry="5.5" fill="black"/>
<circle cx="501.5" cy="390.5" r="5.5" fill="black"/>
<ellipse cx="348" cy="391.5" rx="5" ry="5.5" fill="black"/>
<circle cx="375.5" cy="330.5" r="5.5" fill="black"/>
<ellipse cx="330" cy="250.5" rx="5" ry="5.5" fill="black"/>
<ellipse cx="377" cy="162.5" rx="5" ry="5.5" fill="black"/>
<ellipse cx="469" cy="162.5" rx="5" ry="5.5" fill="black"/>
<ellipse cx="515" cy="247.5" rx="5" ry="5.5" fill="black"/>
<ellipse cx="471" cy="330.5" rx="5" ry="5.5" fill="black"/>
<ellipse cx="99" cy="105.5" rx="5" ry="5.5" fill="black"/>
<path d="M154.656 425.8V500H147.766V425.8H154.656ZM104.412 425.8V500H97.522V425.8H104.412ZM148.72 461.734V464.914H103.352V461.734H148.72ZM97.84 492.262V500H89.36V498.94C89.36 498.94 89.572 498.94 89.996 498.94C90.4907 498.94 90.738 498.94 90.738 498.94C92.5753 498.94 94.13 498.304 95.402 497.032C96.7447 495.689 97.4513 494.099 97.522 492.262H97.84ZM97.84 433.538H97.522C97.4513 431.701 96.7447 430.146 95.402 428.874C94.13 427.531 92.5753 426.86 90.738 426.86C90.738 426.86 90.4907 426.86 89.996 426.86C89.572 426.86 89.36 426.86 89.36 426.86V425.8H97.84V433.538ZM104.094 492.262H104.412C104.483 494.099 105.154 495.689 106.426 497.032C107.769 498.304 109.359 498.94 111.196 498.94C111.196 498.94 111.408 498.94 111.832 498.94C112.256 498.94 112.503 498.94 112.574 498.94V500H104.094V492.262ZM104.094 433.538V425.8H112.574V426.86C112.503 426.86 112.256 426.86 111.832 426.86C111.408 426.86 111.196 426.86 111.196 426.86C109.359 426.86 107.769 427.531 106.426 428.874C105.154 430.146 104.483 431.701 104.412 433.538H104.094ZM148.084 492.262V500H139.604V498.94C139.675 498.94 139.922 498.94 140.346 498.94C140.77 498.94 140.982 498.94 140.982 498.94C142.819 498.94 144.409 498.304 145.752 497.032C147.095 495.689 147.766 494.099 147.766 492.262H148.084ZM148.084 433.538H147.766C147.766 431.701 147.095 430.146 145.752 428.874C144.409 427.531 142.819 426.86 140.982 426.86C140.982 426.86 140.77 426.86 140.346 426.86C139.922 426.86 139.675 426.86 139.604 426.86V425.8H148.084V433.538ZM154.338 492.262H154.656C154.727 494.099 155.398 495.689 156.67 497.032C158.013 498.304 159.603 498.94 161.44 498.94C161.44 498.94 161.652 498.94 162.076 498.94C162.571 498.94 162.818 498.94 162.818 498.94V500H154.338V492.262ZM154.338 433.538V425.8H162.818V426.86C162.818 426.86 162.571 426.86 162.076 426.86C161.652 426.86 161.44 426.86 161.44 426.86C159.603 426.86 158.013 427.531 156.67 428.874C155.398 430.146 154.727 431.701 154.656 433.538H154.338ZM187.922 436.4V500H181.138V436.4H187.922ZM216.436 496.714L216.224 500H187.71V496.714H216.436ZM211.454 466.61V469.79H187.71V466.61H211.454ZM216.33 436.4V439.686H187.71V436.4H216.33ZM222.372 484.842L216.542 500H200.43L204.034 496.714C207.567 496.714 210.394 496.219 212.514 495.23C214.704 494.17 216.471 492.757 217.814 490.99C219.156 489.153 220.322 487.103 221.312 484.842H222.372ZM211.454 469.578V475.62H210.288V474.242C210.288 473.041 209.934 472.016 209.228 471.168C208.521 470.249 207.426 469.79 205.942 469.79V469.578H211.454ZM211.454 460.78V466.822H205.942V466.61C207.426 466.61 208.521 466.186 209.228 465.338C209.934 464.419 210.288 463.359 210.288 462.158V460.78H211.454ZM216.33 439.368V446.682H215.164V445.092C215.164 443.608 214.669 442.336 213.68 441.276C212.761 440.216 211.489 439.686 209.864 439.686V439.368H216.33ZM216.33 434.704V437.46L204.246 436.4C206.436 436.4 208.768 436.223 211.242 435.87C213.715 435.446 215.411 435.057 216.33 434.704ZM181.35 493.216L182.728 500H173.506V498.94C173.506 498.94 173.753 498.94 174.248 498.94C174.742 498.94 174.99 498.94 174.99 498.94C176.756 498.94 178.205 498.375 179.336 497.244C180.466 496.113 181.067 494.771 181.138 493.216H181.35ZM181.35 443.078H181.138C181.067 441.453 180.466 440.11 179.336 439.05C178.205 437.99 176.756 437.46 174.99 437.46C174.99 437.46 174.742 437.46 174.248 437.46C173.753 437.46 173.506 437.46 173.506 437.46V436.4H182.728L181.35 443.078ZM241.653 436.506L285.855 499.894H277.269L233.279 436.506H241.653ZM242.713 493.216C241.794 494.559 241.794 495.866 242.713 497.138C243.702 498.339 244.868 498.94 246.211 498.94C246.211 498.94 246.423 498.94 246.847 498.94C247.271 498.94 247.483 498.94 247.483 498.94V500H224.375V498.94H225.753C227.873 498.94 229.816 498.41 231.583 497.35C233.35 496.219 234.798 494.947 235.929 493.534L242.713 493.216ZM256.917 466.822L259.037 471.168L237.731 499.894H231.053L256.917 466.822ZM272.711 493.322L281.403 493.64C282.463 494.983 283.912 496.219 285.749 497.35C287.586 498.41 289.565 498.94 291.685 498.94H293.063V500H267.941V498.94C267.941 498.94 268.153 498.94 268.577 498.94C269.001 498.94 269.213 498.94 269.213 498.94C270.626 498.94 271.757 498.339 272.605 497.138C273.524 495.866 273.559 494.594 272.711 493.322ZM250.981 436.4V437.46C250.981 437.46 250.769 437.46 250.345 437.46C249.921 437.46 249.709 437.46 249.709 437.46C248.366 437.46 247.236 438.096 246.317 439.368C245.398 440.569 245.363 441.806 246.211 443.078L237.731 442.76C236.671 441.347 235.222 440.11 233.385 439.05C231.548 437.99 229.569 437.46 227.449 437.46H226.071V436.4H250.981ZM284.159 436.506L261.581 467.882L258.931 463.43L276.951 436.506H284.159ZM291.261 436.4V437.46H289.777C287.657 437.46 285.678 437.99 283.841 439.05C282.074 440.11 280.661 441.382 279.601 442.866L272.499 443.184C273.347 441.841 273.312 440.569 272.393 439.368C271.545 438.096 270.414 437.46 269.001 437.46C269.001 437.46 268.789 437.46 268.365 437.46C267.941 437.46 267.729 437.46 267.729 437.46V436.4H291.261ZM365.883 434.916L366.837 441.806L342.033 490.672C342.033 490.672 341.75 491.273 341.185 492.474C340.69 493.675 340.16 495.124 339.595 496.82C339.029 498.445 338.605 500 338.323 501.484H337.263L335.779 494.806L365.883 434.916ZM303.767 492.898V500H292.743V498.94C292.743 498.94 292.99 498.94 293.485 498.94C294.05 498.94 294.333 498.94 294.333 498.94C296.17 498.94 297.76 498.41 299.103 497.35C300.516 496.29 301.329 494.806 301.541 492.898H303.767ZM306.947 494.488C306.876 495.548 307.123 496.573 307.689 497.562C308.254 498.481 309.314 498.975 310.869 499.046H312.353V500H306.311V494.488H306.947ZM309.809 434.916H310.869L312.989 441.17L306.417 500H300.587L309.809 434.916ZM310.869 434.916L339.701 490.354L337.263 501.484L308.855 446.576L310.869 434.916ZM366.837 434.916L376.377 500H368.321L361.431 446.682L365.883 434.916H366.837ZM373.197 492.898H375.317C375.599 494.806 376.447 496.29 377.861 497.35C379.274 498.41 380.864 498.94 382.631 498.94C382.631 498.94 382.878 498.94 383.373 498.94C383.938 498.94 384.221 498.94 384.221 498.94V500H373.197V492.898ZM367.579 494.488H368.321V500H362.173V499.046H363.763C365.388 498.975 366.448 498.445 366.943 497.456C367.508 496.467 367.72 495.477 367.579 494.488ZM425.46 434.916C430.406 434.916 435.035 435.729 439.346 437.354C443.727 438.909 447.543 441.17 450.794 444.138C454.115 447.106 456.694 450.639 458.532 454.738C460.369 458.766 461.288 463.253 461.288 468.2C461.288 473.147 460.369 477.669 458.532 481.768C456.694 485.796 454.115 489.294 450.794 492.262C447.543 495.23 443.727 497.527 439.346 499.152C435.035 500.707 430.406 501.484 425.46 501.484C420.513 501.484 415.884 500.707 411.574 499.152C407.263 497.527 403.447 495.23 400.126 492.262C396.875 489.294 394.331 485.796 392.494 481.768C390.656 477.669 389.738 473.147 389.738 468.2C389.738 463.253 390.656 458.766 392.494 454.738C394.331 450.639 396.875 447.106 400.126 444.138C403.447 441.17 407.263 438.909 411.574 437.354C415.884 435.729 420.513 434.916 425.46 434.916ZM425.46 498.304C430.689 498.304 435.424 497.032 439.664 494.488C443.904 491.944 447.26 488.411 449.734 483.888C452.207 479.365 453.444 474.136 453.444 468.2C453.444 462.193 452.207 456.964 449.734 452.512C447.26 447.989 443.904 444.456 439.664 441.912C435.424 439.368 430.689 438.096 425.46 438.096C420.301 438.096 415.602 439.368 411.362 441.912C407.122 444.456 403.765 447.989 401.292 452.512C398.818 456.964 397.582 462.193 397.582 468.2C397.582 474.136 398.818 479.365 401.292 483.888C403.765 488.411 407.122 491.944 411.362 494.488C415.602 497.032 420.301 498.304 425.46 498.304ZM491.329 434.916C493.308 434.916 495.039 434.987 496.523 435.128C498.007 435.269 499.279 435.446 500.339 435.658C501.47 435.799 502.424 436.011 503.201 436.294C504.049 436.506 504.791 436.718 505.427 436.93L505.533 447.424H504.261C504.261 444.527 503.272 442.265 501.293 440.64C499.315 438.944 496.241 438.096 492.071 438.096C488.538 438.096 485.499 439.085 482.955 441.064C480.482 442.972 479.281 445.339 479.351 448.166C479.351 449.085 479.457 450.039 479.669 451.028C479.952 451.947 480.376 452.865 480.941 453.784C481.577 454.703 482.425 455.621 483.485 456.54L504.897 473.076C506.523 474.419 507.724 476.15 508.501 478.27C509.279 480.319 509.703 482.369 509.773 484.418C509.844 487.527 509.031 490.389 507.335 493.004C505.639 495.619 503.343 497.703 500.445 499.258C497.619 500.742 494.474 501.484 491.011 501.484C488.962 501.484 486.736 501.307 484.333 500.954C482.001 500.601 479.811 500.071 477.761 499.364C475.712 498.587 474.016 497.633 472.673 496.502C472.461 495.513 472.355 494.276 472.355 492.792C472.355 491.237 472.461 489.612 472.673 487.916C472.956 486.22 473.309 484.701 473.733 483.358H475.005C474.723 486.538 475.182 489.259 476.383 491.52C477.585 493.781 479.351 495.513 481.683 496.714C484.015 497.845 486.736 498.375 489.845 498.304C494.227 498.163 497.654 497.067 500.127 495.018C502.671 492.898 503.943 490.107 503.943 486.644C503.943 484.948 503.625 483.429 502.989 482.086C502.424 480.673 501.47 479.365 500.127 478.164L478.927 461.84C476.949 460.144 475.606 458.271 474.899 456.222C474.193 454.173 473.839 452.229 473.839 450.392C473.839 447.495 474.617 444.88 476.171 442.548C477.726 440.216 479.811 438.379 482.425 437.036C485.111 435.623 488.079 434.916 491.329 434.916ZM505.321 435.87L505.427 437.778H497.901V435.87H505.321Z" fill="black"/>
</svg>
